<?xml version="1.0" standalone="no"?>
<!DOCTYPE svg PUBLIC "-//W3C//DTD SVG 20010904//EN"
 "http://www.w3.org/TR/2001/REC-SVG-20010904/DTD/svg10.dtd">
<svg version="1.0" xmlns="http://www.w3.org/2000/svg"
 width="713.000000pt" height="582.000000pt" viewBox="0 0 713.000000 582.000000"
 preserveAspectRatio="xMidYMid meet">

<g transform="translate(0.000000,582.000000) scale(0.100000,-0.100000)"
fill="#fff" stroke="none">
<path d="M1450 5312 l0 -339 128 -5 c173 -7 240 -37 281 -127 14 -33 16 -161
21 -1356 l5 -1320 350 0 350 0 3 533 2 534 208 -5 c121 -2 223 -9 245 -16 20
-7 65 -33 100 -59 55 -42 82 -77 255 -337 106 -159 252 -380 323 -490 72 -110
175 -269 230 -352 l99 -153 -51 -92 c-29 -51 -103 -192 -166 -313 -216 -415
-342 -565 -564 -669 -117 -56 -176 -68 -354 -73 -113 -3 -186 0 -250 10 -49 8
-93 13 -97 10 -5 -2 -8 -114 -8 -248 l0 -244 53 -15 c125 -36 253 -48 456 -43
178 4 207 7 316 36 370 96 634 325 872 756 68 124 259 480 359 673 37 70 140
264 229 432 236 443 569 1086 953 1838 53 105 58 111 72 93 8 -10 96 -137 195
-282 99 -145 251 -366 338 -492 86 -125 157 -231 157 -236 0 -7 -178 -271
-476 -706 -223 -325 -474 -703 -474 -714 0 -8 64 -11 198 -11 177 0 201 2 214
18 9 9 153 215 320 457 168 242 333 481 367 530 200 288 281 409 281 420 0 7
-75 122 -167 256 -155 225 -289 421 -698 1017 -82 121 -162 234 -176 253 l-27
34 -173 3 c-95 2 -188 1 -205 -3 -30 -5 -41 -21 -175 -268 -78 -144 -234 -431
-347 -637 -113 -206 -272 -499 -355 -650 -82 -151 -178 -328 -214 -393 l-65
-118 -152 243 c-196 313 -330 522 -368 576 -17 24 -29 44 -27 46 2 1 51 17
108 35 498 156 804 453 891 865 86 406 -37 815 -326 1085 -164 153 -384 264
-642 323 -97 22 -101 22 -1259 25 l-1163 4 0 -339z m2215 -366 c223 -50 380
-194 431 -396 23 -90 15 -241 -18 -330 -65 -177 -214 -313 -408 -371 -73 -22
-90 -23 -577 -27 l-503 -3 0 570 c0 534 1 570 18 574 9 2 235 3 502 1 393 -2
498 -6 555 -18z"/>
<path d="M1112 4382 c-13 -9 -166 -233 -677 -993 -269 -399 -286 -428 -275
-450 7 -13 50 -76 95 -139 104 -147 579 -828 746 -1071 71 -103 136 -189 145
-193 8 -3 99 -6 201 -6 176 0 185 1 180 19 -5 19 -156 245 -606 906 -134 198
-267 393 -295 434 -34 51 -47 77 -40 86 5 7 43 62 85 121 41 60 91 132 110
159 20 28 91 131 159 230 68 99 146 212 173 250 167 241 427 638 422 646 -7
11 -405 12 -423 1z"/>
</g>
</svg>
